<mxfile host="app.diagrams.net" modified="2024-04-04T08:13:44.565Z" agent="Mozilla/5.0 (Windows NT 10.0; Win64; x64) AppleWebKit/537.36 (KHTML, like Gecko) Chrome/123.0.0.0 Safari/537.36" etag="7FTdSGpWfSrIMJPJwTFy" version="24.2.2" type="google">
  <diagram id="R2lEEEUBdFMjLlhIrx00" name="Page-1">
    <mxGraphModel grid="1" page="1" gridSize="10" guides="1" tooltips="1" connect="1" arrows="1" fold="1" pageScale="1" pageWidth="850" pageHeight="1100" math="0" shadow="0" extFonts="Permanent Marker^https://fonts.googleapis.com/css?family=Permanent+Marker">
      <root>
        <mxCell id="0" />
        <mxCell id="1" parent="0" />
        <mxCell id="67F66TAgpTzogQdSaKXS-1" value="Customer" style="rounded=0;whiteSpace=wrap;html=1;" vertex="1" parent="1">
          <mxGeometry x="586" y="947" width="120" height="60" as="geometry" />
        </mxCell>
        <mxCell id="67F66TAgpTzogQdSaKXS-2" value="Shops" style="rhombus;whiteSpace=wrap;html=1;" vertex="1" parent="1">
          <mxGeometry x="425" y="1220" width="80" height="80" as="geometry" />
        </mxCell>
        <mxCell id="67F66TAgpTzogQdSaKXS-3" value="makes" style="rhombus;whiteSpace=wrap;html=1;" vertex="1" parent="1">
          <mxGeometry x="700" y="1153" width="96" height="93" as="geometry" />
        </mxCell>
        <mxCell id="67F66TAgpTzogQdSaKXS-4" value="write" style="rhombus;whiteSpace=wrap;html=1;" vertex="1" parent="1">
          <mxGeometry x="1083" y="1059" width="80" height="80" as="geometry" />
        </mxCell>
        <mxCell id="67F66TAgpTzogQdSaKXS-5" value="places" style="rhombus;whiteSpace=wrap;html=1;" vertex="1" parent="1">
          <mxGeometry x="1395" y="1044" width="80" height="80" as="geometry" />
        </mxCell>
        <mxCell id="67F66TAgpTzogQdSaKXS-6" value="likes" style="rhombus;whiteSpace=wrap;html=1;" vertex="1" parent="1">
          <mxGeometry x="1004" y="826" width="80" height="80" as="geometry" />
        </mxCell>
        <mxCell id="67F66TAgpTzogQdSaKXS-7" value="wishlist" style="rounded=0;whiteSpace=wrap;html=1;" vertex="1" parent="1">
          <mxGeometry x="960" y="619" width="116" height="52" as="geometry" />
        </mxCell>
        <mxCell id="67F66TAgpTzogQdSaKXS-8" value="seller" style="rounded=0;whiteSpace=wrap;html=1;" vertex="1" parent="1">
          <mxGeometry x="1467" y="651" width="120" height="60" as="geometry" />
        </mxCell>
        <mxCell id="67F66TAgpTzogQdSaKXS-9" value="sales" style="rhombus;whiteSpace=wrap;html=1;" vertex="1" parent="1">
          <mxGeometry x="1583" y="781" width="80" height="80" as="geometry" />
        </mxCell>
        <mxCell id="67F66TAgpTzogQdSaKXS-10" value="product" style="rounded=0;whiteSpace=wrap;html=1;" vertex="1" parent="1">
          <mxGeometry x="1766" y="915" width="120" height="60" as="geometry" />
        </mxCell>
        <mxCell id="67F66TAgpTzogQdSaKXS-11" value="categorize" style="rhombus;whiteSpace=wrap;html=1;" vertex="1" parent="1">
          <mxGeometry x="1555" y="887" width="80" height="80" as="geometry" />
        </mxCell>
        <mxCell id="67F66TAgpTzogQdSaKXS-12" value="category" style="rounded=0;whiteSpace=wrap;html=1;" vertex="1" parent="1">
          <mxGeometry x="1367" y="870" width="120" height="60" as="geometry" />
        </mxCell>
        <mxCell id="67F66TAgpTzogQdSaKXS-13" value="for" style="rhombus;whiteSpace=wrap;html=1;" vertex="1" parent="1">
          <mxGeometry x="1413" y="1327" width="80" height="80" as="geometry" />
        </mxCell>
        <mxCell id="67F66TAgpTzogQdSaKXS-14" value="Payment" style="rounded=0;whiteSpace=wrap;html=1;" vertex="1" parent="1">
          <mxGeometry x="925" y="1419" width="120" height="60" as="geometry" />
        </mxCell>
        <mxCell id="67F66TAgpTzogQdSaKXS-15" value="cart" style="rounded=0;whiteSpace=wrap;html=1;" vertex="1" parent="1">
          <mxGeometry x="402" y="1371" width="120" height="60" as="geometry" />
        </mxCell>
        <mxCell id="67F66TAgpTzogQdSaKXS-16" value="confirms" style="rhombus;whiteSpace=wrap;html=1;" vertex="1" parent="1">
          <mxGeometry x="1025" y="1776" width="80" height="80" as="geometry" />
        </mxCell>
        <mxCell id="67F66TAgpTzogQdSaKXS-17" value="shipment" style="rounded=0;whiteSpace=wrap;html=1;" vertex="1" parent="1">
          <mxGeometry x="1034" y="1943" width="120" height="60" as="geometry" />
        </mxCell>
        <mxCell id="67F66TAgpTzogQdSaKXS-18" value="previous" style="rhombus;whiteSpace=wrap;html=1;" vertex="1" parent="1">
          <mxGeometry x="1186" y="1514" width="80" height="80" as="geometry" />
        </mxCell>
        <mxCell id="67F66TAgpTzogQdSaKXS-19" value="payment history" style="rounded=0;whiteSpace=wrap;html=1;" vertex="1" parent="1">
          <mxGeometry x="1361" y="1728" width="120" height="60" as="geometry" />
        </mxCell>
        <mxCell id="67F66TAgpTzogQdSaKXS-20" value="review" style="rounded=0;whiteSpace=wrap;html=1;" vertex="1" parent="1">
          <mxGeometry x="1069" y="1204" width="120" height="60" as="geometry" />
        </mxCell>
        <mxCell id="67F66TAgpTzogQdSaKXS-21" value="order" style="rounded=0;whiteSpace=wrap;html=1;" vertex="1" parent="1">
          <mxGeometry x="1802" y="1352" width="120" height="60" as="geometry" />
        </mxCell>
        <mxCell id="67F66TAgpTzogQdSaKXS-22" value="includes" style="rhombus;whiteSpace=wrap;html=1;" vertex="1" parent="1">
          <mxGeometry x="2102" y="1319" width="80" height="80" as="geometry" />
        </mxCell>
        <mxCell id="67F66TAgpTzogQdSaKXS-23" value="order item" style="rounded=0;whiteSpace=wrap;html=1;" vertex="1" parent="1">
          <mxGeometry x="1983" y="1650" width="120" height="60" as="geometry" />
        </mxCell>
        <mxCell id="67F66TAgpTzogQdSaKXS-24" value="" style="endArrow=none;html=1;rounded=0;" edge="1" parent="1" source="67F66TAgpTzogQdSaKXS-1" target="67F66TAgpTzogQdSaKXS-6">
          <mxGeometry width="50" height="50" relative="1" as="geometry">
            <mxPoint x="1095" y="1055" as="sourcePoint" />
            <mxPoint x="1145" y="1005" as="targetPoint" />
          </mxGeometry>
        </mxCell>
        <mxCell id="67F66TAgpTzogQdSaKXS-25" value="" style="endArrow=none;html=1;rounded=0;" edge="1" parent="1" source="67F66TAgpTzogQdSaKXS-13" target="67F66TAgpTzogQdSaKXS-21">
          <mxGeometry width="50" height="50" relative="1" as="geometry">
            <mxPoint x="1435" y="1049" as="sourcePoint" />
            <mxPoint x="1485" y="999" as="targetPoint" />
          </mxGeometry>
        </mxCell>
        <mxCell id="67F66TAgpTzogQdSaKXS-26" value="" style="endArrow=none;html=1;rounded=0;" edge="1" parent="1" source="67F66TAgpTzogQdSaKXS-14" target="67F66TAgpTzogQdSaKXS-13">
          <mxGeometry width="50" height="50" relative="1" as="geometry">
            <mxPoint x="1435" y="1049" as="sourcePoint" />
            <mxPoint x="1485" y="999" as="targetPoint" />
          </mxGeometry>
        </mxCell>
        <mxCell id="67F66TAgpTzogQdSaKXS-27" value="" style="endArrow=none;html=1;rounded=0;" edge="1" parent="1" source="67F66TAgpTzogQdSaKXS-1" target="67F66TAgpTzogQdSaKXS-4">
          <mxGeometry width="50" height="50" relative="1" as="geometry">
            <mxPoint x="1435" y="1049" as="sourcePoint" />
            <mxPoint x="1485" y="999" as="targetPoint" />
          </mxGeometry>
        </mxCell>
        <mxCell id="67F66TAgpTzogQdSaKXS-28" value="" style="endArrow=none;html=1;rounded=0;entryX=0.575;entryY=0;entryDx=0;entryDy=0;entryPerimeter=0;" edge="1" parent="1" source="67F66TAgpTzogQdSaKXS-4" target="67F66TAgpTzogQdSaKXS-20">
          <mxGeometry width="50" height="50" relative="1" as="geometry">
            <mxPoint x="1435" y="1049" as="sourcePoint" />
            <mxPoint x="1485" y="999" as="targetPoint" />
          </mxGeometry>
        </mxCell>
        <mxCell id="67F66TAgpTzogQdSaKXS-29" value="" style="endArrow=none;html=1;rounded=0;" edge="1" parent="1" source="67F66TAgpTzogQdSaKXS-5" target="67F66TAgpTzogQdSaKXS-21">
          <mxGeometry width="50" height="50" relative="1" as="geometry">
            <mxPoint x="1435" y="1049" as="sourcePoint" />
            <mxPoint x="1485" y="999" as="targetPoint" />
          </mxGeometry>
        </mxCell>
        <mxCell id="67F66TAgpTzogQdSaKXS-30" value="" style="endArrow=none;html=1;rounded=0;" edge="1" parent="1" source="67F66TAgpTzogQdSaKXS-5" target="67F66TAgpTzogQdSaKXS-1">
          <mxGeometry width="50" height="50" relative="1" as="geometry">
            <mxPoint x="1435" y="1049" as="sourcePoint" />
            <mxPoint x="1485" y="999" as="targetPoint" />
          </mxGeometry>
        </mxCell>
        <mxCell id="67F66TAgpTzogQdSaKXS-31" value="" style="endArrow=none;html=1;rounded=0;" edge="1" parent="1" source="67F66TAgpTzogQdSaKXS-6" target="67F66TAgpTzogQdSaKXS-7">
          <mxGeometry width="50" height="50" relative="1" as="geometry">
            <mxPoint x="1435" y="1049" as="sourcePoint" />
            <mxPoint x="1485" y="999" as="targetPoint" />
          </mxGeometry>
        </mxCell>
        <mxCell id="67F66TAgpTzogQdSaKXS-32" value="" style="endArrow=none;html=1;rounded=0;" edge="1" parent="1" source="67F66TAgpTzogQdSaKXS-14" target="67F66TAgpTzogQdSaKXS-18">
          <mxGeometry width="50" height="50" relative="1" as="geometry">
            <mxPoint x="1435" y="1049" as="sourcePoint" />
            <mxPoint x="1485" y="999" as="targetPoint" />
          </mxGeometry>
        </mxCell>
        <mxCell id="67F66TAgpTzogQdSaKXS-33" value="" style="endArrow=none;html=1;rounded=0;" edge="1" parent="1" source="67F66TAgpTzogQdSaKXS-18" target="67F66TAgpTzogQdSaKXS-19">
          <mxGeometry width="50" height="50" relative="1" as="geometry">
            <mxPoint x="1234" y="1554" as="sourcePoint" />
            <mxPoint x="1284" y="1504" as="targetPoint" />
          </mxGeometry>
        </mxCell>
        <mxCell id="67F66TAgpTzogQdSaKXS-34" value="" style="endArrow=none;html=1;rounded=0;" edge="1" parent="1" source="67F66TAgpTzogQdSaKXS-16" target="67F66TAgpTzogQdSaKXS-14">
          <mxGeometry width="50" height="50" relative="1" as="geometry">
            <mxPoint x="1435" y="1049" as="sourcePoint" />
            <mxPoint x="1485" y="999" as="targetPoint" />
          </mxGeometry>
        </mxCell>
        <mxCell id="67F66TAgpTzogQdSaKXS-35" value="" style="endArrow=none;html=1;rounded=0;" edge="1" parent="1" source="67F66TAgpTzogQdSaKXS-17" target="67F66TAgpTzogQdSaKXS-16">
          <mxGeometry width="50" height="50" relative="1" as="geometry">
            <mxPoint x="943" y="1631" as="sourcePoint" />
            <mxPoint x="1064" y="1525" as="targetPoint" />
          </mxGeometry>
        </mxCell>
        <mxCell id="67F66TAgpTzogQdSaKXS-36" value="" style="endArrow=none;html=1;rounded=0;" edge="1" parent="1" source="67F66TAgpTzogQdSaKXS-14" target="67F66TAgpTzogQdSaKXS-3">
          <mxGeometry width="50" height="50" relative="1" as="geometry">
            <mxPoint x="1435" y="1049" as="sourcePoint" />
            <mxPoint x="1485" y="999" as="targetPoint" />
          </mxGeometry>
        </mxCell>
        <mxCell id="67F66TAgpTzogQdSaKXS-37" value="" style="endArrow=none;html=1;rounded=0;exitX=0.5;exitY=0.042;exitDx=0;exitDy=0;exitPerimeter=0;entryX=0.475;entryY=0.944;entryDx=0;entryDy=0;entryPerimeter=0;" edge="1" parent="1" source="67F66TAgpTzogQdSaKXS-15" target="67F66TAgpTzogQdSaKXS-2">
          <mxGeometry width="50" height="50" relative="1" as="geometry">
            <mxPoint x="1435" y="1049" as="sourcePoint" />
            <mxPoint x="1485" y="999" as="targetPoint" />
          </mxGeometry>
        </mxCell>
        <mxCell id="67F66TAgpTzogQdSaKXS-38" value="" style="endArrow=none;html=1;rounded=0;" edge="1" parent="1" source="67F66TAgpTzogQdSaKXS-3" target="67F66TAgpTzogQdSaKXS-1">
          <mxGeometry width="50" height="50" relative="1" as="geometry">
            <mxPoint x="1435" y="1049" as="sourcePoint" />
            <mxPoint x="1485" y="999" as="targetPoint" />
          </mxGeometry>
        </mxCell>
        <mxCell id="67F66TAgpTzogQdSaKXS-39" value="" style="endArrow=none;html=1;rounded=0;exitX=0.525;exitY=0;exitDx=0;exitDy=0;exitPerimeter=0;entryX=0.217;entryY=0.992;entryDx=0;entryDy=0;entryPerimeter=0;" edge="1" parent="1" source="67F66TAgpTzogQdSaKXS-2" target="67F66TAgpTzogQdSaKXS-1">
          <mxGeometry width="50" height="50" relative="1" as="geometry">
            <mxPoint x="1435" y="1049" as="sourcePoint" />
            <mxPoint x="1485" y="999" as="targetPoint" />
          </mxGeometry>
        </mxCell>
        <mxCell id="67F66TAgpTzogQdSaKXS-40" value="" style="endArrow=none;html=1;rounded=0;" edge="1" parent="1" source="67F66TAgpTzogQdSaKXS-12" target="67F66TAgpTzogQdSaKXS-11">
          <mxGeometry width="50" height="50" relative="1" as="geometry">
            <mxPoint x="1498" y="1052" as="sourcePoint" />
            <mxPoint x="1548" y="1002" as="targetPoint" />
          </mxGeometry>
        </mxCell>
        <mxCell id="67F66TAgpTzogQdSaKXS-41" value="" style="endArrow=none;html=1;rounded=0;" edge="1" parent="1" source="67F66TAgpTzogQdSaKXS-11" target="67F66TAgpTzogQdSaKXS-10">
          <mxGeometry width="50" height="50" relative="1" as="geometry">
            <mxPoint x="1598" y="1046" as="sourcePoint" />
            <mxPoint x="1648" y="996" as="targetPoint" />
          </mxGeometry>
        </mxCell>
        <mxCell id="67F66TAgpTzogQdSaKXS-42" value="" style="endArrow=none;html=1;rounded=0;" edge="1" parent="1" source="67F66TAgpTzogQdSaKXS-10" target="67F66TAgpTzogQdSaKXS-22">
          <mxGeometry width="50" height="50" relative="1" as="geometry">
            <mxPoint x="1623" y="1439" as="sourcePoint" />
            <mxPoint x="1673" y="1389" as="targetPoint" />
          </mxGeometry>
        </mxCell>
        <mxCell id="67F66TAgpTzogQdSaKXS-43" value="" style="endArrow=none;html=1;rounded=0;" edge="1" parent="1" source="67F66TAgpTzogQdSaKXS-23" target="67F66TAgpTzogQdSaKXS-22">
          <mxGeometry width="50" height="50" relative="1" as="geometry">
            <mxPoint x="2099" y="1644" as="sourcePoint" />
            <mxPoint x="1673" y="1389" as="targetPoint" />
          </mxGeometry>
        </mxCell>
        <mxCell id="67F66TAgpTzogQdSaKXS-44" value="" style="endArrow=none;html=1;rounded=0;" edge="1" parent="1" source="67F66TAgpTzogQdSaKXS-21" target="67F66TAgpTzogQdSaKXS-48">
          <mxGeometry width="50" height="50" relative="1" as="geometry">
            <mxPoint x="1623" y="1439" as="sourcePoint" />
            <mxPoint x="1842.0439999999999" y="1462.299" as="targetPoint" />
          </mxGeometry>
        </mxCell>
        <mxCell id="67F66TAgpTzogQdSaKXS-45" value="" style="endArrow=none;html=1;rounded=0;" edge="1" parent="1" source="67F66TAgpTzogQdSaKXS-23" target="67F66TAgpTzogQdSaKXS-48">
          <mxGeometry width="50" height="50" relative="1" as="geometry">
            <mxPoint x="1623" y="1439" as="sourcePoint" />
            <mxPoint x="1842.0439999999999" y="1582.3310000000001" as="targetPoint" />
          </mxGeometry>
        </mxCell>
        <mxCell id="67F66TAgpTzogQdSaKXS-46" value="" style="endArrow=none;html=1;rounded=0;" edge="1" parent="1" source="67F66TAgpTzogQdSaKXS-8" target="67F66TAgpTzogQdSaKXS-9">
          <mxGeometry width="50" height="50" relative="1" as="geometry">
            <mxPoint x="1462" y="1070" as="sourcePoint" />
            <mxPoint x="1512" y="1020" as="targetPoint" />
          </mxGeometry>
        </mxCell>
        <mxCell id="67F66TAgpTzogQdSaKXS-47" value="" style="endArrow=none;html=1;rounded=0;" edge="1" parent="1" source="67F66TAgpTzogQdSaKXS-9" target="67F66TAgpTzogQdSaKXS-10">
          <mxGeometry width="50" height="50" relative="1" as="geometry">
            <mxPoint x="1462" y="1070" as="sourcePoint" />
            <mxPoint x="1512" y="1020" as="targetPoint" />
          </mxGeometry>
        </mxCell>
        <mxCell id="67F66TAgpTzogQdSaKXS-48" value="includes" style="shape=rhombus;double=1;perimeter=rhombusPerimeter;whiteSpace=wrap;html=1;align=center;" vertex="1" parent="1">
          <mxGeometry x="1813" y="1486" width="59" height="60" as="geometry" />
        </mxCell>
        <mxCell id="67F66TAgpTzogQdSaKXS-49" value="customer_id" style="ellipse;whiteSpace=wrap;html=1;align=center;fontStyle=4;" vertex="1" parent="1">
          <mxGeometry x="441" y="770" width="100" height="40" as="geometry" />
        </mxCell>
        <mxCell id="67F66TAgpTzogQdSaKXS-50" value="Name" style="ellipse;whiteSpace=wrap;html=1;align=center;" vertex="1" parent="1">
          <mxGeometry x="299" y="768" width="100" height="40" as="geometry" />
        </mxCell>
        <mxCell id="67F66TAgpTzogQdSaKXS-51" value="email" style="ellipse;whiteSpace=wrap;html=1;align=center;" vertex="1" parent="1">
          <mxGeometry x="205" y="823" width="100" height="40" as="geometry" />
        </mxCell>
        <mxCell id="67F66TAgpTzogQdSaKXS-52" value="DOB" style="ellipse;whiteSpace=wrap;html=1;align=center;" vertex="1" parent="1">
          <mxGeometry x="160" y="891" width="100" height="40" as="geometry" />
        </mxCell>
        <mxCell id="67F66TAgpTzogQdSaKXS-54" value="age" style="ellipse;whiteSpace=wrap;html=1;align=center;dashed=1;" vertex="1" parent="1">
          <mxGeometry x="310" y="1028" width="100" height="40" as="geometry" />
        </mxCell>
        <mxCell id="67F66TAgpTzogQdSaKXS-55" value="address" style="ellipse;whiteSpace=wrap;html=1;align=center;" vertex="1" parent="1">
          <mxGeometry x="569" y="809" width="100" height="40" as="geometry" />
        </mxCell>
        <mxCell id="67F66TAgpTzogQdSaKXS-56" value="customer_id" style="ellipse;whiteSpace=wrap;html=1;align=center;" vertex="1" parent="1">
          <mxGeometry x="468" y="1518" width="100" height="40" as="geometry" />
        </mxCell>
        <mxCell id="67F66TAgpTzogQdSaKXS-57" value="Grand_total" style="ellipse;whiteSpace=wrap;html=1;align=center;" vertex="1" parent="1">
          <mxGeometry x="334" y="1522" width="100" height="40" as="geometry" />
        </mxCell>
        <mxCell id="67F66TAgpTzogQdSaKXS-58" value="total_item" style="ellipse;whiteSpace=wrap;html=1;align=center;" vertex="1" parent="1">
          <mxGeometry x="237" y="1470" width="100" height="40" as="geometry" />
        </mxCell>
        <mxCell id="67F66TAgpTzogQdSaKXS-59" value="Cart_id" style="ellipse;whiteSpace=wrap;html=1;align=center;fontStyle=4;" vertex="1" parent="1">
          <mxGeometry x="232" y="1403" width="100" height="40" as="geometry" />
        </mxCell>
        <mxCell id="67F66TAgpTzogQdSaKXS-60" value="Payment_id" style="ellipse;whiteSpace=wrap;html=1;align=center;fontStyle=4;" vertex="1" parent="1">
          <mxGeometry x="644" y="1462" width="100" height="40" as="geometry" />
        </mxCell>
        <mxCell id="67F66TAgpTzogQdSaKXS-61" value="order_id" style="ellipse;whiteSpace=wrap;html=1;align=center;" vertex="1" parent="1">
          <mxGeometry x="690" y="1408" width="100" height="40" as="geometry" />
        </mxCell>
        <mxCell id="67F66TAgpTzogQdSaKXS-62" value="customer_id" style="ellipse;whiteSpace=wrap;html=1;align=center;" vertex="1" parent="1">
          <mxGeometry x="760" y="1350" width="100" height="40" as="geometry" />
        </mxCell>
        <mxCell id="67F66TAgpTzogQdSaKXS-63" value="payment_mode" style="ellipse;whiteSpace=wrap;html=1;align=center;" vertex="1" parent="1">
          <mxGeometry x="711" y="1520" width="100" height="40" as="geometry" />
        </mxCell>
        <mxCell id="67F66TAgpTzogQdSaKXS-64" value="Payment_date" style="ellipse;whiteSpace=wrap;html=1;align=center;" vertex="1" parent="1">
          <mxGeometry x="795" y="1574" width="100" height="40" as="geometry" />
        </mxCell>
        <mxCell id="67F66TAgpTzogQdSaKXS-65" value="payment_history_id" style="ellipse;whiteSpace=wrap;html=1;align=center;fontStyle=4;" vertex="1" parent="1">
          <mxGeometry x="1207" y="1792" width="141" height="40" as="geometry" />
        </mxCell>
        <mxCell id="67F66TAgpTzogQdSaKXS-66" value="payment_id" style="ellipse;whiteSpace=wrap;html=1;align=center;" vertex="1" parent="1">
          <mxGeometry x="1289" y="1860" width="100" height="40" as="geometry" />
        </mxCell>
        <mxCell id="67F66TAgpTzogQdSaKXS-67" value="transaction_Id" style="ellipse;whiteSpace=wrap;html=1;align=center;" vertex="1" parent="1">
          <mxGeometry x="1546" y="1736" width="100" height="40" as="geometry" />
        </mxCell>
        <mxCell id="67F66TAgpTzogQdSaKXS-68" value="payment _data" style="ellipse;whiteSpace=wrap;html=1;align=center;" vertex="1" parent="1">
          <mxGeometry x="1421" y="1860" width="100" height="40" as="geometry" />
        </mxCell>
        <mxCell id="67F66TAgpTzogQdSaKXS-69" value="status" style="ellipse;whiteSpace=wrap;html=1;align=center;" vertex="1" parent="1">
          <mxGeometry x="1519" y="1813" width="100" height="40" as="geometry" />
        </mxCell>
        <mxCell id="67F66TAgpTzogQdSaKXS-70" value="review_id" style="ellipse;whiteSpace=wrap;html=1;align=center;fontStyle=4;" vertex="1" parent="1">
          <mxGeometry x="932" y="1202" width="100" height="40" as="geometry" />
        </mxCell>
        <mxCell id="67F66TAgpTzogQdSaKXS-71" value="description" style="ellipse;whiteSpace=wrap;html=1;align=center;" vertex="1" parent="1">
          <mxGeometry x="951" y="1268" width="100" height="40" as="geometry" />
        </mxCell>
        <mxCell id="67F66TAgpTzogQdSaKXS-72" value="Ratings" style="ellipse;whiteSpace=wrap;html=1;align=center;" vertex="1" parent="1">
          <mxGeometry x="1068" y="1298" width="100" height="40" as="geometry" />
        </mxCell>
        <mxCell id="67F66TAgpTzogQdSaKXS-73" value="product_id" style="ellipse;whiteSpace=wrap;html=1;align=center;" vertex="1" parent="1">
          <mxGeometry x="1192" y="1290" width="100" height="40" as="geometry" />
        </mxCell>
        <mxCell id="67F66TAgpTzogQdSaKXS-74" value="customer_id" style="ellipse;whiteSpace=wrap;html=1;align=center;" vertex="1" parent="1">
          <mxGeometry x="1231" y="1224" width="100" height="40" as="geometry" />
        </mxCell>
        <mxCell id="67F66TAgpTzogQdSaKXS-75" value="seller_id" style="ellipse;whiteSpace=wrap;html=1;align=center;fontStyle=4;" vertex="1" parent="1">
          <mxGeometry x="1615" y="451" width="100" height="40" as="geometry" />
        </mxCell>
        <mxCell id="67F66TAgpTzogQdSaKXS-76" value="name" style="ellipse;whiteSpace=wrap;html=1;align=center;" vertex="1" parent="1">
          <mxGeometry x="1395" y="519" width="100" height="40" as="geometry" />
        </mxCell>
        <mxCell id="67F66TAgpTzogQdSaKXS-77" value="phone" style="ellipse;whiteSpace=wrap;html=1;align=center;" vertex="1" parent="1">
          <mxGeometry x="1490" y="450" width="100" height="40" as="geometry" />
        </mxCell>
        <mxCell id="67F66TAgpTzogQdSaKXS-78" value="sales" style="ellipse;whiteSpace=wrap;html=1;align=center;" vertex="1" parent="1">
          <mxGeometry x="1686" y="521" width="100" height="40" as="geometry" />
        </mxCell>
        <mxCell id="67F66TAgpTzogQdSaKXS-79" value="product_id" style="ellipse;whiteSpace=wrap;html=1;align=center;fontStyle=4;rotation=0;" vertex="1" parent="1">
          <mxGeometry x="1936" y="789" width="100" height="40" as="geometry" />
        </mxCell>
        <mxCell id="67F66TAgpTzogQdSaKXS-80" value="product_name" style="ellipse;whiteSpace=wrap;html=1;align=center;rotation=0;" vertex="1" parent="1">
          <mxGeometry x="1823" y="772" width="100" height="40" as="geometry" />
        </mxCell>
        <mxCell id="67F66TAgpTzogQdSaKXS-81" value="MRP" style="ellipse;whiteSpace=wrap;html=1;align=center;" vertex="1" parent="1">
          <mxGeometry x="2030" y="914" width="100" height="40" as="geometry" />
        </mxCell>
        <mxCell id="67F66TAgpTzogQdSaKXS-82" value="Category_id" style="ellipse;whiteSpace=wrap;html=1;align=center;" vertex="1" parent="1">
          <mxGeometry x="2048" y="867" width="100" height="40" as="geometry" />
        </mxCell>
        <mxCell id="67F66TAgpTzogQdSaKXS-83" value="stock" style="ellipse;whiteSpace=wrap;html=1;align=center;" vertex="1" parent="1">
          <mxGeometry x="2035" y="829" width="100" height="34" as="geometry" />
        </mxCell>
        <mxCell id="67F66TAgpTzogQdSaKXS-84" value="Brand" style="ellipse;whiteSpace=wrap;html=1;align=center;rotation=0;" vertex="1" parent="1">
          <mxGeometry x="1986" y="967" width="100" height="40" as="geometry" />
        </mxCell>
        <mxCell id="67F66TAgpTzogQdSaKXS-85" value="Order_id" style="ellipse;whiteSpace=wrap;html=1;align=center;fontStyle=4;" vertex="1" parent="1">
          <mxGeometry x="1826" y="1731" width="100" height="40" as="geometry" />
        </mxCell>
        <mxCell id="67F66TAgpTzogQdSaKXS-86" value="shipping_date" style="ellipse;whiteSpace=wrap;html=1;align=center;" vertex="1" parent="1">
          <mxGeometry x="1872" y="1794" width="100" height="40" as="geometry" />
        </mxCell>
        <mxCell id="67F66TAgpTzogQdSaKXS-87" value="order_date" style="ellipse;whiteSpace=wrap;html=1;align=center;" vertex="1" parent="1">
          <mxGeometry x="1988" y="1824" width="100" height="40" as="geometry" />
        </mxCell>
        <mxCell id="67F66TAgpTzogQdSaKXS-88" value="order_amount" style="ellipse;whiteSpace=wrap;html=1;align=center;" vertex="1" parent="1">
          <mxGeometry x="2083" y="1779" width="100" height="40" as="geometry" />
        </mxCell>
        <mxCell id="67F66TAgpTzogQdSaKXS-89" value="cart_id" style="ellipse;whiteSpace=wrap;html=1;align=center;" vertex="1" parent="1">
          <mxGeometry x="2160" y="1739" width="100" height="40" as="geometry" />
        </mxCell>
        <mxCell id="67F66TAgpTzogQdSaKXS-90" value="order_id" style="ellipse;whiteSpace=wrap;html=1;align=center;fontStyle=4;" vertex="1" parent="1">
          <mxGeometry x="1959" y="1267" width="100" height="40" as="geometry" />
        </mxCell>
        <mxCell id="67F66TAgpTzogQdSaKXS-91" value="shipping_date" style="ellipse;whiteSpace=wrap;html=1;align=center;" vertex="1" parent="1">
          <mxGeometry x="1848" y="1276" width="100" height="40" as="geometry" />
        </mxCell>
        <mxCell id="67F66TAgpTzogQdSaKXS-92" value="order_date" style="ellipse;whiteSpace=wrap;html=1;align=center;" vertex="1" parent="1">
          <mxGeometry x="1919" y="1448" width="100" height="40" as="geometry" />
        </mxCell>
        <mxCell id="67F66TAgpTzogQdSaKXS-93" value="Order_amount" style="ellipse;whiteSpace=wrap;html=1;align=center;" vertex="1" parent="1">
          <mxGeometry x="1973" y="1396" width="100" height="40" as="geometry" />
        </mxCell>
        <mxCell id="67F66TAgpTzogQdSaKXS-94" value="cart_id" style="ellipse;whiteSpace=wrap;html=1;align=center;" vertex="1" parent="1">
          <mxGeometry x="1966" y="1334" width="100" height="40" as="geometry" />
        </mxCell>
        <mxCell id="67F66TAgpTzogQdSaKXS-95" value="category_id" style="ellipse;whiteSpace=wrap;html=1;align=center;fontStyle=4;" vertex="1" parent="1">
          <mxGeometry x="1235" y="922" width="100" height="40" as="geometry" />
        </mxCell>
        <mxCell id="67F66TAgpTzogQdSaKXS-96" value="Category_name" style="ellipse;whiteSpace=wrap;html=1;align=center;" vertex="1" parent="1">
          <mxGeometry x="1227" y="856" width="100" height="40" as="geometry" />
        </mxCell>
        <mxCell id="67F66TAgpTzogQdSaKXS-97" value="description" style="ellipse;whiteSpace=wrap;html=1;align=center;" vertex="1" parent="1">
          <mxGeometry x="1286" y="795" width="100" height="40" as="geometry" />
        </mxCell>
        <mxCell id="67F66TAgpTzogQdSaKXS-98" value="wishlist_id" style="ellipse;whiteSpace=wrap;html=1;align=center;fontStyle=4;" vertex="1" parent="1">
          <mxGeometry x="1107" y="551" width="100" height="40" as="geometry" />
        </mxCell>
        <mxCell id="67F66TAgpTzogQdSaKXS-99" value="customer_id" style="ellipse;whiteSpace=wrap;html=1;align=center;" vertex="1" parent="1">
          <mxGeometry x="807" y="595" width="100" height="40" as="geometry" />
        </mxCell>
        <mxCell id="67F66TAgpTzogQdSaKXS-100" value="Product_id" style="ellipse;whiteSpace=wrap;html=1;align=center;" vertex="1" parent="1">
          <mxGeometry x="846" y="500" width="100" height="40" as="geometry" />
        </mxCell>
        <mxCell id="67F66TAgpTzogQdSaKXS-101" value="added_at" style="ellipse;whiteSpace=wrap;html=1;align=center;" vertex="1" parent="1">
          <mxGeometry x="974" y="487" width="100" height="40" as="geometry" />
        </mxCell>
        <mxCell id="67F66TAgpTzogQdSaKXS-102" value="shipment_id" style="ellipse;whiteSpace=wrap;html=1;align=center;fontStyle=4;" vertex="1" parent="1">
          <mxGeometry x="866" y="2038" width="100" height="40" as="geometry" />
        </mxCell>
        <mxCell id="67F66TAgpTzogQdSaKXS-103" value="order_id" style="ellipse;whiteSpace=wrap;html=1;align=center;" vertex="1" parent="1">
          <mxGeometry x="1215" y="1996" width="100" height="40" as="geometry" />
        </mxCell>
        <mxCell id="67F66TAgpTzogQdSaKXS-104" value="shipment_date" style="ellipse;whiteSpace=wrap;html=1;align=center;" vertex="1" parent="1">
          <mxGeometry x="1166" y="2055" width="100" height="40" as="geometry" />
        </mxCell>
        <mxCell id="67F66TAgpTzogQdSaKXS-105" value="estimate_date" style="ellipse;whiteSpace=wrap;html=1;align=center;" vertex="1" parent="1">
          <mxGeometry x="1080" y="2094" width="100" height="40" as="geometry" />
        </mxCell>
        <mxCell id="67F66TAgpTzogQdSaKXS-106" value="arrival_date" style="ellipse;whiteSpace=wrap;html=1;align=center;" vertex="1" parent="1">
          <mxGeometry x="957" y="2091" width="100" height="40" as="geometry" />
        </mxCell>
        <mxCell id="67F66TAgpTzogQdSaKXS-107" value="" style="verticalLabelPosition=bottom;verticalAlign=top;html=1;shape=mxgraph.basic.smiley" vertex="1" parent="1">
          <mxGeometry x="338" y="493" width="100" height="100" as="geometry" />
        </mxCell>
        <mxCell id="67F66TAgpTzogQdSaKXS-108" value="" style="verticalLabelPosition=bottom;verticalAlign=top;html=1;shape=mxgraph.basic.tick" vertex="1" parent="1">
          <mxGeometry x="1969" y="2048" width="85" height="100" as="geometry" />
        </mxCell>
        <mxCell id="67F66TAgpTzogQdSaKXS-109" value="" style="endArrow=classic;html=1;rounded=0;entryX=0.599;entryY=0.94;entryDx=0;entryDy=0;entryPerimeter=0;" edge="1" parent="1" source="67F66TAgpTzogQdSaKXS-1" target="67F66TAgpTzogQdSaKXS-50">
          <mxGeometry width="50" height="50" relative="1" as="geometry">
            <mxPoint x="515" y="976" as="sourcePoint" />
            <mxPoint x="565" y="926" as="targetPoint" />
          </mxGeometry>
        </mxCell>
        <mxCell id="67F66TAgpTzogQdSaKXS-110" value="" style="endArrow=classic;html=1;rounded=0;" edge="1" parent="1" source="67F66TAgpTzogQdSaKXS-1" target="67F66TAgpTzogQdSaKXS-54">
          <mxGeometry width="50" height="50" relative="1" as="geometry">
            <mxPoint x="525" y="986" as="sourcePoint" />
            <mxPoint x="575" y="936" as="targetPoint" />
          </mxGeometry>
        </mxCell>
        <mxCell id="67F66TAgpTzogQdSaKXS-111" value="" style="endArrow=classic;html=1;rounded=0;entryX=0.956;entryY=0.637;entryDx=0;entryDy=0;entryPerimeter=0;" edge="1" parent="1" source="67F66TAgpTzogQdSaKXS-1" target="67F66TAgpTzogQdSaKXS-51">
          <mxGeometry width="50" height="50" relative="1" as="geometry">
            <mxPoint x="596" y="963" as="sourcePoint" />
            <mxPoint x="369" y="816" as="targetPoint" />
          </mxGeometry>
        </mxCell>
        <mxCell id="67F66TAgpTzogQdSaKXS-112" value="" style="endArrow=classic;html=1;rounded=0;entryX=0.99;entryY=0.537;entryDx=0;entryDy=0;entryPerimeter=0;" edge="1" parent="1" source="67F66TAgpTzogQdSaKXS-1" target="67F66TAgpTzogQdSaKXS-52">
          <mxGeometry width="50" height="50" relative="1" as="geometry">
            <mxPoint x="595" y="974" as="sourcePoint" />
            <mxPoint x="311" y="858" as="targetPoint" />
          </mxGeometry>
        </mxCell>
        <mxCell id="67F66TAgpTzogQdSaKXS-113" value="" style="endArrow=classic;html=1;rounded=0;" edge="1" parent="1" source="67F66TAgpTzogQdSaKXS-1" target="q_GceBMwPyGKZijH4aF9-1">
          <mxGeometry width="50" height="50" relative="1" as="geometry">
            <mxPoint x="597" y="983" as="sourcePoint" />
            <mxPoint x="325.8774604806483" y="986.6006323712845" as="targetPoint" />
          </mxGeometry>
        </mxCell>
        <mxCell id="67F66TAgpTzogQdSaKXS-114" value="" style="endArrow=classic;html=1;rounded=0;entryX=0.51;entryY=1.025;entryDx=0;entryDy=0;entryPerimeter=0;" edge="1" parent="1" source="67F66TAgpTzogQdSaKXS-1" target="67F66TAgpTzogQdSaKXS-49">
          <mxGeometry width="50" height="50" relative="1" as="geometry">
            <mxPoint x="596" y="963" as="sourcePoint" />
            <mxPoint x="369" y="816" as="targetPoint" />
          </mxGeometry>
        </mxCell>
        <mxCell id="67F66TAgpTzogQdSaKXS-115" value="" style="endArrow=classic;html=1;rounded=0;" edge="1" parent="1" source="67F66TAgpTzogQdSaKXS-1" target="67F66TAgpTzogQdSaKXS-55">
          <mxGeometry width="50" height="50" relative="1" as="geometry">
            <mxPoint x="615" y="954" as="sourcePoint" />
            <mxPoint x="502" y="821" as="targetPoint" />
          </mxGeometry>
        </mxCell>
        <mxCell id="67F66TAgpTzogQdSaKXS-116" value="" style="endArrow=classic;html=1;rounded=0;" edge="1" parent="1" source="67F66TAgpTzogQdSaKXS-15" target="67F66TAgpTzogQdSaKXS-57">
          <mxGeometry width="50" height="50" relative="1" as="geometry">
            <mxPoint x="425" y="1502" as="sourcePoint" />
            <mxPoint x="475" y="1452" as="targetPoint" />
          </mxGeometry>
        </mxCell>
        <mxCell id="67F66TAgpTzogQdSaKXS-117" value="" style="endArrow=classic;html=1;rounded=0;" edge="1" parent="1" source="67F66TAgpTzogQdSaKXS-15" target="67F66TAgpTzogQdSaKXS-56">
          <mxGeometry width="50" height="50" relative="1" as="geometry">
            <mxPoint x="434" y="1447" as="sourcePoint" />
            <mxPoint x="402" y="1528" as="targetPoint" />
          </mxGeometry>
        </mxCell>
        <mxCell id="67F66TAgpTzogQdSaKXS-118" value="" style="endArrow=classic;html=1;rounded=0;" edge="1" parent="1" source="67F66TAgpTzogQdSaKXS-15" target="67F66TAgpTzogQdSaKXS-58">
          <mxGeometry width="50" height="50" relative="1" as="geometry">
            <mxPoint x="476" y="1443" as="sourcePoint" />
            <mxPoint x="492" y="1535" as="targetPoint" />
          </mxGeometry>
        </mxCell>
        <mxCell id="67F66TAgpTzogQdSaKXS-119" value="" style="endArrow=classic;html=1;rounded=0;" edge="1" parent="1" source="67F66TAgpTzogQdSaKXS-15" target="67F66TAgpTzogQdSaKXS-59">
          <mxGeometry width="50" height="50" relative="1" as="geometry">
            <mxPoint x="400" y="1440" as="sourcePoint" />
            <mxPoint x="345" y="1491" as="targetPoint" />
          </mxGeometry>
        </mxCell>
        <mxCell id="67F66TAgpTzogQdSaKXS-120" value="" style="endArrow=classic;html=1;rounded=0;" edge="1" parent="1" source="67F66TAgpTzogQdSaKXS-14" target="67F66TAgpTzogQdSaKXS-61">
          <mxGeometry width="50" height="50" relative="1" as="geometry">
            <mxPoint x="781" y="1495" as="sourcePoint" />
            <mxPoint x="831" y="1445" as="targetPoint" />
          </mxGeometry>
        </mxCell>
        <mxCell id="67F66TAgpTzogQdSaKXS-121" value="" style="endArrow=classic;html=1;rounded=0;" edge="1" parent="1" source="67F66TAgpTzogQdSaKXS-14" target="67F66TAgpTzogQdSaKXS-60">
          <mxGeometry width="50" height="50" relative="1" as="geometry">
            <mxPoint x="927" y="1457" as="sourcePoint" />
            <mxPoint x="798" y="1443" as="targetPoint" />
          </mxGeometry>
        </mxCell>
        <mxCell id="67F66TAgpTzogQdSaKXS-122" value="" style="endArrow=classic;html=1;rounded=0;" edge="1" parent="1" source="67F66TAgpTzogQdSaKXS-14" target="67F66TAgpTzogQdSaKXS-63">
          <mxGeometry width="50" height="50" relative="1" as="geometry">
            <mxPoint x="927" y="1469" as="sourcePoint" />
            <mxPoint x="752" y="1487" as="targetPoint" />
          </mxGeometry>
        </mxCell>
        <mxCell id="67F66TAgpTzogQdSaKXS-123" value="" style="endArrow=classic;html=1;rounded=0;" edge="1" parent="1" source="67F66TAgpTzogQdSaKXS-14" target="67F66TAgpTzogQdSaKXS-64">
          <mxGeometry width="50" height="50" relative="1" as="geometry">
            <mxPoint x="927" y="1487" as="sourcePoint" />
            <mxPoint x="806" y="1536" as="targetPoint" />
          </mxGeometry>
        </mxCell>
        <mxCell id="67F66TAgpTzogQdSaKXS-124" value="" style="endArrow=classic;html=1;rounded=0;" edge="1" parent="1" source="67F66TAgpTzogQdSaKXS-14" target="67F66TAgpTzogQdSaKXS-62">
          <mxGeometry width="50" height="50" relative="1" as="geometry">
            <mxPoint x="935" y="1454" as="sourcePoint" />
            <mxPoint x="799" y="1442" as="targetPoint" />
          </mxGeometry>
        </mxCell>
        <mxCell id="67F66TAgpTzogQdSaKXS-125" value="" style="endArrow=classic;html=1;rounded=0;" edge="1" parent="1" source="67F66TAgpTzogQdSaKXS-17" target="67F66TAgpTzogQdSaKXS-106">
          <mxGeometry width="50" height="50" relative="1" as="geometry">
            <mxPoint x="1067" y="2212" as="sourcePoint" />
            <mxPoint x="1117" y="2162" as="targetPoint" />
          </mxGeometry>
        </mxCell>
        <mxCell id="67F66TAgpTzogQdSaKXS-126" value="" style="endArrow=classic;html=1;rounded=0;" edge="1" parent="1" source="67F66TAgpTzogQdSaKXS-17" target="67F66TAgpTzogQdSaKXS-102">
          <mxGeometry width="50" height="50" relative="1" as="geometry">
            <mxPoint x="1077" y="2222" as="sourcePoint" />
            <mxPoint x="1127" y="2172" as="targetPoint" />
          </mxGeometry>
        </mxCell>
        <mxCell id="67F66TAgpTzogQdSaKXS-127" value="" style="endArrow=classic;html=1;rounded=0;" edge="1" parent="1" source="67F66TAgpTzogQdSaKXS-17" target="67F66TAgpTzogQdSaKXS-105">
          <mxGeometry width="50" height="50" relative="1" as="geometry">
            <mxPoint x="1087" y="2232" as="sourcePoint" />
            <mxPoint x="1137" y="2182" as="targetPoint" />
          </mxGeometry>
        </mxCell>
        <mxCell id="67F66TAgpTzogQdSaKXS-128" value="" style="endArrow=classic;html=1;rounded=0;" edge="1" parent="1" source="67F66TAgpTzogQdSaKXS-17" target="67F66TAgpTzogQdSaKXS-104">
          <mxGeometry width="50" height="50" relative="1" as="geometry">
            <mxPoint x="1097" y="2242" as="sourcePoint" />
            <mxPoint x="1147" y="2192" as="targetPoint" />
          </mxGeometry>
        </mxCell>
        <mxCell id="67F66TAgpTzogQdSaKXS-129" value="" style="endArrow=classic;html=1;rounded=0;" edge="1" parent="1" source="67F66TAgpTzogQdSaKXS-17" target="67F66TAgpTzogQdSaKXS-103">
          <mxGeometry width="50" height="50" relative="1" as="geometry">
            <mxPoint x="1107" y="2252" as="sourcePoint" />
            <mxPoint x="1157" y="2202" as="targetPoint" />
          </mxGeometry>
        </mxCell>
        <mxCell id="67F66TAgpTzogQdSaKXS-130" value="" style="endArrow=classic;html=1;rounded=0;" edge="1" parent="1" source="67F66TAgpTzogQdSaKXS-19" target="67F66TAgpTzogQdSaKXS-65">
          <mxGeometry width="50" height="50" relative="1" as="geometry">
            <mxPoint x="1130" y="1896" as="sourcePoint" />
            <mxPoint x="1180" y="1846" as="targetPoint" />
          </mxGeometry>
        </mxCell>
        <mxCell id="67F66TAgpTzogQdSaKXS-131" value="" style="endArrow=classic;html=1;rounded=0;" edge="1" parent="1" source="67F66TAgpTzogQdSaKXS-19" target="67F66TAgpTzogQdSaKXS-66">
          <mxGeometry width="50" height="50" relative="1" as="geometry">
            <mxPoint x="1140" y="1906" as="sourcePoint" />
            <mxPoint x="1190" y="1856" as="targetPoint" />
          </mxGeometry>
        </mxCell>
        <mxCell id="67F66TAgpTzogQdSaKXS-132" value="" style="endArrow=classic;html=1;rounded=0;" edge="1" parent="1" source="67F66TAgpTzogQdSaKXS-19" target="67F66TAgpTzogQdSaKXS-68">
          <mxGeometry width="50" height="50" relative="1" as="geometry">
            <mxPoint x="1150" y="1916" as="sourcePoint" />
            <mxPoint x="1200" y="1866" as="targetPoint" />
          </mxGeometry>
        </mxCell>
        <mxCell id="67F66TAgpTzogQdSaKXS-133" value="" style="endArrow=classic;html=1;rounded=0;" edge="1" parent="1" source="67F66TAgpTzogQdSaKXS-19" target="67F66TAgpTzogQdSaKXS-69">
          <mxGeometry width="50" height="50" relative="1" as="geometry">
            <mxPoint x="1160" y="1926" as="sourcePoint" />
            <mxPoint x="1210" y="1876" as="targetPoint" />
          </mxGeometry>
        </mxCell>
        <mxCell id="67F66TAgpTzogQdSaKXS-134" value="" style="endArrow=classic;html=1;rounded=0;" edge="1" parent="1" source="67F66TAgpTzogQdSaKXS-19" target="67F66TAgpTzogQdSaKXS-67">
          <mxGeometry width="50" height="50" relative="1" as="geometry">
            <mxPoint x="1170" y="1936" as="sourcePoint" />
            <mxPoint x="1220" y="1886" as="targetPoint" />
          </mxGeometry>
        </mxCell>
        <mxCell id="67F66TAgpTzogQdSaKXS-135" value="" style="endArrow=classic;html=1;rounded=0;" edge="1" parent="1" source="67F66TAgpTzogQdSaKXS-20" target="67F66TAgpTzogQdSaKXS-72">
          <mxGeometry width="50" height="50" relative="1" as="geometry">
            <mxPoint x="1130" y="1256" as="sourcePoint" />
            <mxPoint x="1180" y="1206" as="targetPoint" />
            <Array as="points">
              <mxPoint x="1126" y="1275" />
            </Array>
          </mxGeometry>
        </mxCell>
        <mxCell id="67F66TAgpTzogQdSaKXS-136" value="" style="endArrow=classic;html=1;rounded=0;" edge="1" parent="1" source="67F66TAgpTzogQdSaKXS-20" target="67F66TAgpTzogQdSaKXS-73">
          <mxGeometry width="50" height="50" relative="1" as="geometry">
            <mxPoint x="1140" y="1266" as="sourcePoint" />
            <mxPoint x="1190" y="1216" as="targetPoint" />
          </mxGeometry>
        </mxCell>
        <mxCell id="67F66TAgpTzogQdSaKXS-137" value="" style="endArrow=classic;html=1;rounded=0;" edge="1" parent="1" source="67F66TAgpTzogQdSaKXS-20" target="67F66TAgpTzogQdSaKXS-70">
          <mxGeometry width="50" height="50" relative="1" as="geometry">
            <mxPoint x="1150" y="1276" as="sourcePoint" />
            <mxPoint x="1200" y="1226" as="targetPoint" />
          </mxGeometry>
        </mxCell>
        <mxCell id="67F66TAgpTzogQdSaKXS-138" value="" style="endArrow=classic;html=1;rounded=0;" edge="1" parent="1" source="67F66TAgpTzogQdSaKXS-20" target="67F66TAgpTzogQdSaKXS-71">
          <mxGeometry width="50" height="50" relative="1" as="geometry">
            <mxPoint x="1160" y="1286" as="sourcePoint" />
            <mxPoint x="1210" y="1236" as="targetPoint" />
          </mxGeometry>
        </mxCell>
        <mxCell id="67F66TAgpTzogQdSaKXS-139" value="" style="endArrow=classic;html=1;rounded=0;" edge="1" parent="1" source="67F66TAgpTzogQdSaKXS-20" target="67F66TAgpTzogQdSaKXS-74">
          <mxGeometry width="50" height="50" relative="1" as="geometry">
            <mxPoint x="1170" y="1296" as="sourcePoint" />
            <mxPoint x="1220" y="1246" as="targetPoint" />
          </mxGeometry>
        </mxCell>
        <mxCell id="67F66TAgpTzogQdSaKXS-140" value="" style="endArrow=classic;html=1;rounded=0;" edge="1" parent="1" source="67F66TAgpTzogQdSaKXS-7" target="67F66TAgpTzogQdSaKXS-99">
          <mxGeometry width="50" height="50" relative="1" as="geometry">
            <mxPoint x="843" y="778" as="sourcePoint" />
            <mxPoint x="893" y="728" as="targetPoint" />
          </mxGeometry>
        </mxCell>
        <mxCell id="67F66TAgpTzogQdSaKXS-141" value="" style="endArrow=classic;html=1;rounded=0;" edge="1" parent="1" source="67F66TAgpTzogQdSaKXS-7" target="67F66TAgpTzogQdSaKXS-100">
          <mxGeometry width="50" height="50" relative="1" as="geometry">
            <mxPoint x="853" y="788" as="sourcePoint" />
            <mxPoint x="903" y="738" as="targetPoint" />
          </mxGeometry>
        </mxCell>
        <mxCell id="67F66TAgpTzogQdSaKXS-142" value="" style="endArrow=classic;html=1;rounded=0;" edge="1" parent="1" source="67F66TAgpTzogQdSaKXS-7" target="67F66TAgpTzogQdSaKXS-101">
          <mxGeometry width="50" height="50" relative="1" as="geometry">
            <mxPoint x="1069" y="641" as="sourcePoint" />
            <mxPoint x="913" y="748" as="targetPoint" />
          </mxGeometry>
        </mxCell>
        <mxCell id="67F66TAgpTzogQdSaKXS-143" value="" style="endArrow=classic;html=1;rounded=0;" edge="1" parent="1" source="67F66TAgpTzogQdSaKXS-7" target="67F66TAgpTzogQdSaKXS-98">
          <mxGeometry width="50" height="50" relative="1" as="geometry">
            <mxPoint x="873" y="808" as="sourcePoint" />
            <mxPoint x="923" y="758" as="targetPoint" />
          </mxGeometry>
        </mxCell>
        <mxCell id="67F66TAgpTzogQdSaKXS-144" value="" style="endArrow=classic;html=1;rounded=0;" edge="1" parent="1" source="67F66TAgpTzogQdSaKXS-23" target="67F66TAgpTzogQdSaKXS-85">
          <mxGeometry width="50" height="50" relative="1" as="geometry">
            <mxPoint x="1997" y="1791" as="sourcePoint" />
            <mxPoint x="2047" y="1741" as="targetPoint" />
          </mxGeometry>
        </mxCell>
        <mxCell id="67F66TAgpTzogQdSaKXS-145" value="" style="endArrow=classic;html=1;rounded=0;" edge="1" parent="1" source="67F66TAgpTzogQdSaKXS-23" target="67F66TAgpTzogQdSaKXS-86">
          <mxGeometry width="50" height="50" relative="1" as="geometry">
            <mxPoint x="2007" y="1801" as="sourcePoint" />
            <mxPoint x="2057" y="1751" as="targetPoint" />
          </mxGeometry>
        </mxCell>
        <mxCell id="67F66TAgpTzogQdSaKXS-146" value="" style="endArrow=classic;html=1;rounded=0;" edge="1" parent="1" source="67F66TAgpTzogQdSaKXS-23" target="67F66TAgpTzogQdSaKXS-88">
          <mxGeometry width="50" height="50" relative="1" as="geometry">
            <mxPoint x="2017" y="1811" as="sourcePoint" />
            <mxPoint x="2067" y="1761" as="targetPoint" />
          </mxGeometry>
        </mxCell>
        <mxCell id="67F66TAgpTzogQdSaKXS-147" value="" style="endArrow=classic;html=1;rounded=0;" edge="1" parent="1" source="67F66TAgpTzogQdSaKXS-23" target="67F66TAgpTzogQdSaKXS-87">
          <mxGeometry width="50" height="50" relative="1" as="geometry">
            <mxPoint x="2027" y="1821" as="sourcePoint" />
            <mxPoint x="2077" y="1771" as="targetPoint" />
          </mxGeometry>
        </mxCell>
        <mxCell id="67F66TAgpTzogQdSaKXS-148" value="" style="endArrow=classic;html=1;rounded=0;" edge="1" parent="1" source="67F66TAgpTzogQdSaKXS-23" target="67F66TAgpTzogQdSaKXS-89">
          <mxGeometry width="50" height="50" relative="1" as="geometry">
            <mxPoint x="2037" y="1831" as="sourcePoint" />
            <mxPoint x="2087" y="1781" as="targetPoint" />
          </mxGeometry>
        </mxCell>
        <mxCell id="67F66TAgpTzogQdSaKXS-149" value="" style="endArrow=classic;html=1;rounded=0;" edge="1" parent="1" source="67F66TAgpTzogQdSaKXS-21" target="67F66TAgpTzogQdSaKXS-91">
          <mxGeometry width="50" height="50" relative="1" as="geometry">
            <mxPoint x="2164" y="1434" as="sourcePoint" />
            <mxPoint x="2214" y="1384" as="targetPoint" />
          </mxGeometry>
        </mxCell>
        <mxCell id="67F66TAgpTzogQdSaKXS-150" value="" style="endArrow=classic;html=1;rounded=0;" edge="1" parent="1" source="67F66TAgpTzogQdSaKXS-21" target="67F66TAgpTzogQdSaKXS-90">
          <mxGeometry width="50" height="50" relative="1" as="geometry">
            <mxPoint x="2174" y="1444" as="sourcePoint" />
            <mxPoint x="2224" y="1394" as="targetPoint" />
          </mxGeometry>
        </mxCell>
        <mxCell id="67F66TAgpTzogQdSaKXS-151" value="" style="endArrow=classic;html=1;rounded=0;" edge="1" parent="1" source="67F66TAgpTzogQdSaKXS-21" target="67F66TAgpTzogQdSaKXS-94">
          <mxGeometry width="50" height="50" relative="1" as="geometry">
            <mxPoint x="2184" y="1454" as="sourcePoint" />
            <mxPoint x="2234" y="1404" as="targetPoint" />
          </mxGeometry>
        </mxCell>
        <mxCell id="67F66TAgpTzogQdSaKXS-152" value="" style="endArrow=classic;html=1;rounded=0;" edge="1" parent="1" source="67F66TAgpTzogQdSaKXS-21" target="67F66TAgpTzogQdSaKXS-93">
          <mxGeometry width="50" height="50" relative="1" as="geometry">
            <mxPoint x="1724" y="1393.9961780104713" as="sourcePoint" />
            <mxPoint x="2046" y="1420.97" as="targetPoint" />
          </mxGeometry>
        </mxCell>
        <mxCell id="67F66TAgpTzogQdSaKXS-153" value="" style="endArrow=classic;html=1;rounded=0;" edge="1" parent="1" source="67F66TAgpTzogQdSaKXS-21" target="67F66TAgpTzogQdSaKXS-92">
          <mxGeometry width="50" height="50" relative="1" as="geometry">
            <mxPoint x="2204" y="1474" as="sourcePoint" />
            <mxPoint x="2254" y="1424" as="targetPoint" />
          </mxGeometry>
        </mxCell>
        <mxCell id="67F66TAgpTzogQdSaKXS-154" value="" style="endArrow=classic;html=1;rounded=0;" edge="1" parent="1" source="67F66TAgpTzogQdSaKXS-12" target="67F66TAgpTzogQdSaKXS-97">
          <mxGeometry width="50" height="50" relative="1" as="geometry">
            <mxPoint x="1448" y="938" as="sourcePoint" />
            <mxPoint x="1498" y="888" as="targetPoint" />
          </mxGeometry>
        </mxCell>
        <mxCell id="67F66TAgpTzogQdSaKXS-155" value="" style="endArrow=classic;html=1;rounded=0;" edge="1" parent="1" source="67F66TAgpTzogQdSaKXS-12" target="67F66TAgpTzogQdSaKXS-96">
          <mxGeometry width="50" height="50" relative="1" as="geometry">
            <mxPoint x="1458" y="948" as="sourcePoint" />
            <mxPoint x="1508" y="898" as="targetPoint" />
          </mxGeometry>
        </mxCell>
        <mxCell id="67F66TAgpTzogQdSaKXS-156" value="" style="endArrow=classic;html=1;rounded=0;" edge="1" parent="1" source="67F66TAgpTzogQdSaKXS-12" target="67F66TAgpTzogQdSaKXS-95">
          <mxGeometry width="50" height="50" relative="1" as="geometry">
            <mxPoint x="1468" y="958" as="sourcePoint" />
            <mxPoint x="1518" y="908" as="targetPoint" />
          </mxGeometry>
        </mxCell>
        <mxCell id="67F66TAgpTzogQdSaKXS-157" value="" style="endArrow=classic;html=1;rounded=0;" edge="1" parent="1" source="67F66TAgpTzogQdSaKXS-8" target="67F66TAgpTzogQdSaKXS-76">
          <mxGeometry width="50" height="50" relative="1" as="geometry">
            <mxPoint x="1506" y="590" as="sourcePoint" />
            <mxPoint x="1556" y="540" as="targetPoint" />
          </mxGeometry>
        </mxCell>
        <mxCell id="67F66TAgpTzogQdSaKXS-158" value="" style="endArrow=classic;html=1;rounded=0;" edge="1" parent="1" source="67F66TAgpTzogQdSaKXS-8" target="67F66TAgpTzogQdSaKXS-77">
          <mxGeometry width="50" height="50" relative="1" as="geometry">
            <mxPoint x="1516" y="600" as="sourcePoint" />
            <mxPoint x="1566" y="550" as="targetPoint" />
          </mxGeometry>
        </mxCell>
        <mxCell id="67F66TAgpTzogQdSaKXS-159" value="" style="endArrow=classic;html=1;rounded=0;" edge="1" parent="1" source="67F66TAgpTzogQdSaKXS-8" target="67F66TAgpTzogQdSaKXS-75">
          <mxGeometry width="50" height="50" relative="1" as="geometry">
            <mxPoint x="1526" y="610" as="sourcePoint" />
            <mxPoint x="1576" y="560" as="targetPoint" />
          </mxGeometry>
        </mxCell>
        <mxCell id="67F66TAgpTzogQdSaKXS-160" value="" style="endArrow=classic;html=1;rounded=0;" edge="1" parent="1" source="67F66TAgpTzogQdSaKXS-8" target="67F66TAgpTzogQdSaKXS-78">
          <mxGeometry width="50" height="50" relative="1" as="geometry">
            <mxPoint x="1536" y="620" as="sourcePoint" />
            <mxPoint x="1586" y="570" as="targetPoint" />
          </mxGeometry>
        </mxCell>
        <mxCell id="67F66TAgpTzogQdSaKXS-161" value="" style="endArrow=classic;html=1;rounded=0;" edge="1" parent="1" source="67F66TAgpTzogQdSaKXS-10" target="67F66TAgpTzogQdSaKXS-80">
          <mxGeometry width="50" height="50" relative="1" as="geometry">
            <mxPoint x="1840" y="924" as="sourcePoint" />
            <mxPoint x="1890" y="874" as="targetPoint" />
          </mxGeometry>
        </mxCell>
        <mxCell id="67F66TAgpTzogQdSaKXS-162" value="" style="endArrow=classic;html=1;rounded=0;" edge="1" parent="1" source="67F66TAgpTzogQdSaKXS-10" target="67F66TAgpTzogQdSaKXS-79">
          <mxGeometry width="50" height="50" relative="1" as="geometry">
            <mxPoint x="1850" y="934" as="sourcePoint" />
            <mxPoint x="1900" y="884" as="targetPoint" />
          </mxGeometry>
        </mxCell>
        <mxCell id="67F66TAgpTzogQdSaKXS-163" value="" style="endArrow=classic;html=1;rounded=0;" edge="1" parent="1" source="67F66TAgpTzogQdSaKXS-10" target="67F66TAgpTzogQdSaKXS-83">
          <mxGeometry width="50" height="50" relative="1" as="geometry">
            <mxPoint x="1860" y="944" as="sourcePoint" />
            <mxPoint x="1910" y="894" as="targetPoint" />
          </mxGeometry>
        </mxCell>
        <mxCell id="67F66TAgpTzogQdSaKXS-164" value="" style="endArrow=classic;html=1;rounded=0;" edge="1" parent="1" source="67F66TAgpTzogQdSaKXS-10" target="67F66TAgpTzogQdSaKXS-82">
          <mxGeometry width="50" height="50" relative="1" as="geometry">
            <mxPoint x="1870" y="954" as="sourcePoint" />
            <mxPoint x="1920" y="904" as="targetPoint" />
          </mxGeometry>
        </mxCell>
        <mxCell id="67F66TAgpTzogQdSaKXS-165" value="" style="endArrow=classic;html=1;rounded=0;" edge="1" parent="1" source="67F66TAgpTzogQdSaKXS-10" target="67F66TAgpTzogQdSaKXS-81">
          <mxGeometry width="50" height="50" relative="1" as="geometry">
            <mxPoint x="1880" y="964" as="sourcePoint" />
            <mxPoint x="1930" y="914" as="targetPoint" />
          </mxGeometry>
        </mxCell>
        <mxCell id="67F66TAgpTzogQdSaKXS-166" value="" style="endArrow=classic;html=1;rounded=0;" edge="1" parent="1" source="67F66TAgpTzogQdSaKXS-10" target="67F66TAgpTzogQdSaKXS-84">
          <mxGeometry width="50" height="50" relative="1" as="geometry">
            <mxPoint x="1890" y="974" as="sourcePoint" />
            <mxPoint x="1940" y="924" as="targetPoint" />
          </mxGeometry>
        </mxCell>
        <mxCell id="K86S5NbMnHDD9XEhyOiw-1" value="quantity" style="ellipse;whiteSpace=wrap;html=1;align=center;" vertex="1" parent="1">
          <mxGeometry x="2182" y="1688" width="100" height="40" as="geometry" />
        </mxCell>
        <mxCell id="K86S5NbMnHDD9XEhyOiw-2" value="" style="endArrow=classic;html=1;rounded=0;" edge="1" parent="1" source="67F66TAgpTzogQdSaKXS-23" target="K86S5NbMnHDD9XEhyOiw-1">
          <mxGeometry width="50" height="50" relative="1" as="geometry">
            <mxPoint x="2113" y="1718" as="sourcePoint" />
            <mxPoint x="2188" y="1754" as="targetPoint" />
          </mxGeometry>
        </mxCell>
        <mxCell id="q_GceBMwPyGKZijH4aF9-1" value="phone" style="ellipse;whiteSpace=wrap;html=1;align=center;" vertex="1" parent="1">
          <mxGeometry x="170" y="975" width="100" height="40" as="geometry" />
        </mxCell>
      </root>
    </mxGraphModel>
  </diagram>
</mxfile>
